<svg width="99" height="88" viewBox="0 0 99 88" fill="none" xmlns="http://www.w3.org/2000/svg">
<g clip-path="url(#clip0_5295_38112)">
<path d="M88.8258 83.0035C88.1805 83.8067 87.252 84.3397 86.2259 84.4959L74.7754 87.6941C73.7789 88.0742 72.6747 88.0742 71.6782 87.6941C70.8613 87.0346 70.3198 86.1004 70.1577 85.0707C53.4981 23.8609 51.2362 10.6605 44.5536 10.6605C37.871 10.6605 35.5621 23.861 18.9495 85.0985C18.7799 86.1278 18.236 87.0606 17.4196 87.7219C16.4231 88.102 15.3189 88.102 14.3224 87.7219L2.87185 84.4959C1.84582 84.3397 0.917321 83.8067 0.272025 83.0035C-0.0848157 82.0238 -0.0848157 80.9519 0.272025 79.9722C17.2601 17.613 26.7865 0 44.5536 0C62.3207 0 71.8283 17.613 88.8258 79.9722C89.1826 80.9519 89.1826 82.0238 88.8258 83.0035Z" fill="#FDB913"/>
<path d="M99 43.6145C98.988 44.2147 98.8472 44.8055 98.587 45.348L98.1084 46.6273C97.8981 47.3756 97.4343 48.03 96.7944 48.4813C96.0388 48.7938 95.198 48.8429 94.4104 48.6203C79.4956 45.3739 63.9055 47.2575 50.2228 53.9589C36.5401 60.6603 25.5859 71.7774 19.1749 85.4685C18.6962 86.4882 17.9642 87.9992 16.2935 87.9992C15.6244 87.9993 14.9594 87.8961 14.3225 87.6933L2.87201 84.5044H2.8157C1.48294 84.1336 0 83.5774 0 81.8625C0.0449244 81.0978 0.256207 80.3516 0.619454 79.6748C8.75018 62.4567 23.187 48.9229 41.0202 41.8012C58.8534 34.6795 78.7569 34.4993 96.7193 41.297C97.6109 41.6307 99 42.1684 99 43.6145Z" fill="url(#paint0_linear_5295_38112)"/>
</g>
<defs>
<linearGradient id="paint0_linear_5295_38112" x1="0" y1="62.1545" x2="99" y2="62.1545" gradientUnits="userSpaceOnUse">
<stop offset="0.3" stop-color="#FDB913"/>
<stop offset="0.75" stop-color="#F7941F"/>
</linearGradient>
<clipPath id="clip0_5295_38112">
<rect width="99" height="88" fill="white"/>
</clipPath>
</defs>
</svg>
